<svg width="2053" height="200" viewBox="0 0 2053 200" fill="none" xmlns="http://www.w3.org/2000/svg">
<path fill-rule="evenodd" clip-rule="evenodd" d="M0 200H204.32L404.29 0H0V200Z" fill="url(#paint0_linear_666_669)"/>
<path fill-rule="evenodd" clip-rule="evenodd" d="M239.92 37.61L200.13 37.58V132.2L165.37 37.58H130.9L101.22 116.71C98.06 96.76 77.42 89.87 61.18 84.7C50.46 81.26 39.08 76.19 39.19 70.6C39.28 66.01 45.29 61.74 57.21 62.38C65.22 62.8 72.28 63.45 86.34 70.23L100.17 46.15C87.34 39.62 69.61 35.5 55.09 35.48H55.01C38.07 35.48 23.96 40.97 15.2 50.01C9.1 56.33 5.82 64.35 5.68 73.22C5.46 85.43 9.94 94.09 19.34 101C27.29 106.83 37.45 110.6 46.4 113.38C57.45 116.8 66.47 119.78 66.36 126.13C66.28 128.43 65.4 130.59 63.74 132.34C60.99 135.18 56.76 136.25 50.91 136.35C39.64 136.59 31.28 134.83 17.96 126.96L5.67 151.37C18.95 158.93 34.67 163.36 50.72 163.36L52.79 163.33C66.76 163.08 78.03 159.1 87.03 151.85C87.55 151.44 88.01 151.02 88.49 150.59L84.5 161.25H120.65L126.72 142.8C133.07 144.97 140.3 146.17 147.97 146.17C155.64 146.17 162.48 145.02 168.71 142.98L174.56 161.24H233.52V123.05H246.38C277.45 123.05 295.84 107.21 295.84 80.69C295.84 51.14 277.98 37.58 239.95 37.58L239.92 37.61ZM147.95 118.57C143.31 118.57 138.95 117.77 135.2 116.35L147.81 76.55H148.05L160.44 116.46C156.72 117.78 152.46 118.57 147.95 118.57ZM242.26 95.7H233.49V63.63H242.26C253.95 63.63 263.27 67.51 263.27 79.45C263.27 91.39 253.95 95.7 242.26 95.7Z" fill="white"/>
<path d="M2010.52 164.271C1979.43 164.271 1959.95 146.47 1959.95 114.056C1959.95 80.3128 1982.18 63.7513 2008.57 63.7513C2040.98 63.7513 2052.5 87.4864 2052.5 111.044C2052.5 113.878 2052.32 116.801 2052.14 119.547H1983.59C1985.19 137.968 1994.75 146.736 2011.58 146.736C2022.47 146.736 2029.74 143.547 2036.29 135.931L2049.31 148.95C2040.27 159.135 2029.2 164.271 2010.52 164.271ZM1983.95 105.642H2030.18C2028.94 88.5492 2020.61 81.0213 2008.04 81.0213C1995.64 81.0213 1986.16 88.5492 1983.95 105.642Z" fill="white"/>
<path d="M1902.84 162.5V65.6112H1924.54V86.4237H1924.9C1928.17 70.925 1935.44 63.7513 1947.57 63.7513C1951.11 63.7513 1954.12 64.3713 1955.89 64.9912V85.9808C1953.5 85.3609 1949.96 84.8295 1946.6 84.8295C1930.65 84.8295 1925.25 95.8114 1925.25 113.79V162.5H1902.84Z" fill="white"/>
<path d="M1826.26 164.271C1805.53 164.271 1796.15 150.101 1796.15 129.466V65.6112H1818.64V124.152C1818.64 137.082 1823.07 145.053 1836.09 145.053C1849.46 145.053 1857.79 136.108 1857.79 119.812V65.6112H1880.11V162.5H1858.5V142.042H1858.05C1853.62 153.201 1844.86 164.271 1826.26 164.271Z" fill="white"/>
<path d="M1765.35 164.094C1745.86 164.094 1737.27 156.92 1737.27 138.322V82.9697H1723.1V72.6963L1755.43 40.459H1759.68V65.6112H1780.67V82.9697H1759.68V133.982C1759.68 142.485 1762.43 144.787 1770.04 144.787C1773.85 144.787 1777.48 144.167 1780.67 143.282V162.5C1776.77 163.474 1771.02 164.094 1765.35 164.094Z" fill="white"/>
<path d="M1683.27 164.271C1654.66 164.271 1634.47 146.204 1634.47 114.056C1634.47 81.8183 1654.66 63.7513 1683.27 63.7513C1701.6 63.7513 1714.27 71.0136 1721.97 81.4641L1707.63 94.1287C1702.05 86.3351 1694.61 81.9955 1684.24 81.9955C1668.57 81.9955 1657.94 92.6231 1657.94 114.056C1657.94 135.488 1668.57 146.116 1684.24 146.116C1694.52 146.116 1701.96 141.687 1707.63 133.894L1721.97 146.647C1714.27 157.098 1701.6 164.271 1683.27 164.271Z" fill="white"/>
<path d="M1564 164.271C1543.27 164.271 1533.88 150.101 1533.88 129.466V65.6112H1556.38V124.152C1556.38 137.082 1560.81 145.053 1573.83 145.053C1587.2 145.053 1595.52 136.108 1595.52 119.812V65.6112H1617.84V162.5H1596.23V142.042H1595.79C1591.36 153.201 1582.59 164.271 1564 164.271Z" fill="white"/>
<path d="M1467.39 162.5V65.6112H1489.09V86.4237H1489.45C1492.72 70.925 1499.99 63.7513 1512.12 63.7513C1515.66 63.7513 1518.67 64.3713 1520.44 64.9912V85.9808C1518.05 85.3609 1514.51 84.8295 1511.14 84.8295C1495.2 84.8295 1489.8 95.8114 1489.8 113.79V162.5H1467.39Z" fill="white"/>
<path d="M1434.03 164.094C1414.54 164.094 1405.95 156.92 1405.95 138.322V82.9697H1391.78V72.6963L1424.11 40.459H1428.36V65.6112H1449.35V82.9697H1428.36V133.982C1428.36 142.485 1431.1 144.787 1438.72 144.787C1442.53 144.787 1446.16 144.167 1449.35 143.282V162.5C1445.45 163.474 1439.7 164.094 1434.03 164.094Z" fill="white"/>
<path d="M1348.41 164.271C1331.49 164.271 1317.76 159.489 1308.38 149.304L1321.84 135.842C1329.54 144.344 1337.87 147.001 1348.05 147.001C1357.88 147.001 1365.59 144.167 1365.59 136.197C1365.59 127.429 1357.35 125.037 1343.45 121.406C1328.48 117.51 1312.89 111.222 1312.89 92.0918C1312.89 74.1133 1326.71 63.7513 1349.65 63.7513C1364.61 63.7513 1376.92 68.3566 1385.6 76.9473L1372.5 90.0548C1365.94 83.3239 1357.88 80.8441 1350 80.8441C1340.7 80.8441 1334.59 84.0324 1334.59 91.1175C1334.59 98.2912 1342.47 100.594 1355.58 104.048C1370.9 107.945 1387.38 113.259 1387.38 134.602C1387.38 153.378 1372.23 164.271 1348.41 164.271Z" fill="white"/>
<path d="M1242.42 164.271C1225.5 164.271 1213.46 154.175 1213.46 136.108C1213.46 115.295 1230.46 105.553 1255.61 105.553H1273.15V99.9739C1273.15 88.2835 1267.48 81.9069 1255.7 81.9069C1244.72 81.9069 1237.01 86.6008 1230.99 94.2173L1217.62 80.9327C1226.56 71.1907 1238.7 63.7513 1258.09 63.7513C1282.71 63.7513 1295.47 76.5931 1295.47 100.062V162.5H1273.86V144.522H1273.33C1267.39 158.072 1257.65 164.271 1242.42 164.271ZM1235.78 133.982C1235.78 142.042 1241.27 147.001 1250.39 147.001C1264.82 147.001 1273.15 136.108 1273.15 124.683V118.395H1259.42C1246.58 118.395 1235.78 121.849 1235.78 133.982Z" fill="white"/>
<path d="M1156.8 162.5V65.6112H1178.5V86.4237H1178.85C1182.13 70.925 1189.39 63.7513 1201.52 63.7513C1205.06 63.7513 1208.08 64.3713 1209.85 64.9912V85.9808C1207.46 85.3609 1203.91 84.8295 1200.55 84.8295C1184.61 84.8295 1179.2 95.8114 1179.2 113.79V162.5H1156.8Z" fill="white"/>
<path d="M1100.14 56.312C1100.14 40.1048 1108.02 28.68 1131.05 28.68C1136.09 28.68 1140.7 29.2114 1143.53 30.0085V47.7213C1141.23 46.9242 1137.87 46.3042 1134.23 46.3042C1124.49 46.3042 1122.54 50.6439 1122.54 58.0832V65.6112H1143.53V82.9697H1122.54V162.5H1100.14V82.9697H1087.83V65.6112H1100.14V56.312Z" fill="white"/>
<path d="M992.111 162.5V65.6112H1013.81V85.9808H1014.16C1018.59 74.9104 1027.45 63.7513 1045.96 63.7513C1066.77 63.7513 1076.07 77.9215 1076.07 98.5569V162.5H1053.66V103.959C1053.66 90.9404 1049.15 83.0582 1036.13 83.0582C1022.75 83.0582 1014.52 91.9146 1014.52 108.21V162.5H992.111Z" fill="white"/>
<path d="M944.485 162.5V37.7136H968.043V162.5H944.485Z" fill="white"/>
<path d="M823.904 164.271C799.283 164.271 782.81 145.23 782.81 114.056C782.81 83.8553 797.954 63.7513 823.018 63.7513C841.882 63.7513 852.775 73.8476 857.292 84.8295H857.735V30.4513H880.142V162.5H858.532V142.573H858.089C853.395 153.732 844.362 164.271 823.904 164.271ZM806.279 114.056C806.279 134.868 816.996 146.116 832.14 146.116C847.196 146.116 857.912 134.868 857.912 114.056C857.912 93.1545 847.196 81.9955 832.14 81.9955C816.996 81.9955 806.279 93.1545 806.279 114.056Z" fill="white"/>
<path d="M712.069 164.271C691.345 164.271 681.957 150.101 681.957 129.466V65.6112H704.452V124.152C704.452 137.082 708.88 145.053 721.899 145.053C735.272 145.053 743.597 136.108 743.597 119.812V65.6112H765.916V162.5H744.306V142.042H743.863C739.435 153.201 730.667 164.271 712.069 164.271Z" fill="white"/>
<path d="M616.884 164.271C587.923 164.271 567.554 144.61 567.554 114.056C567.554 83.5011 587.923 63.7513 616.884 63.7513C645.844 63.7513 666.214 83.5011 666.214 114.056C666.214 144.61 645.844 164.271 616.884 164.271ZM591.023 114.056C591.023 134.868 601.828 146.116 616.884 146.116C631.94 146.116 642.744 134.868 642.744 114.056C642.744 93.1545 631.94 81.9955 616.884 81.9955C601.828 81.9955 591.023 93.1545 591.023 114.056Z" fill="white"/>
<path d="M546.585 164.094C528.341 164.094 521.345 155.415 521.345 138.676V30.4513H543.84V134.78C543.84 142.307 545.611 144.964 552.076 144.964C554.822 144.964 557.213 144.522 559.781 143.99V162.5C556.239 163.386 551.456 164.094 546.585 164.094Z" fill="white"/>
<path d="M460.611 164.271C425.097 164.271 397.111 143.813 397.111 100.062C397.111 56.4005 425.097 35.8537 460.611 35.8537C482.221 35.8537 498.339 43.3816 509.676 56.4005L493.823 72.2534C486.649 62.9542 476.464 56.7548 460.7 56.7548C436.079 56.7548 421.466 71.8106 421.466 100.062C421.466 128.403 436.079 143.459 460.7 143.459C476.464 143.459 486.649 137.259 493.823 127.96L509.676 143.813C498.428 156.743 482.132 164.271 460.611 164.271Z" fill="white"/>
<defs>
<linearGradient id="paint0_linear_666_669" x1="1026.22" y1="0" x2="1026.22" y2="200" gradientUnits="userSpaceOnUse">
<stop stop-color="#00B8F1"/>
<stop offset="0.02" stop-color="#00B5EF"/>
<stop offset="0.31" stop-color="#0D90D8"/>
<stop offset="0.58" stop-color="#1675C8"/>
<stop offset="0.82" stop-color="#1C64BE"/>
<stop offset="1" stop-color="#1E5FBB"/>
</linearGradient>
</defs>
</svg>
